<?xml version='1.0' encoding='utf-8'?>
<!DOCTYPE svg PUBLIC '-//W3C//DTD SVG 1.1//EN' 'http://www.w3.org/Graphics/SVG/1.1/DTD/svg11.dtd'>
<svg version="1.1" xmlns="http://www.w3.org/2000/svg" viewBox="0 0 512 512" xmlns:xlink="http://www.w3.org/1999/xlink" enable-background="new 0 0 512 512">
  <g>
    <g>
      <path d="M480.6,11c-11.3,0-20.4,9.1-20.4,20.4v209.7H51.8v-70c0-11.3-9.2-20.4-20.4-20.4c-11.3,0-20.4,9.1-20.4,20.4v309.4    c0,11.3,9.1,20.4,20.4,20.4c11.3,0,20.4-9.1,20.4-20.4v-98h408.3v98c0,11.3,9.2,20.4,20.4,20.4c11.3,0,20.4-9.1,20.4-20.4V31.4    C501,20.1,491.9,11,480.6,11z M460.2,341.7H51.8V282h408.3V341.7z"/>
      <path d="m401.4,205.4h-74c-11.3,0-20.4-9.1-20.4-20.4 0-11.3 9.1-20.4 20.4-20.4h74c11.3,0 20.4,9.1 20.4,20.4 0.1,11.3-9.1,20.4-20.4,20.4z"/>
    </g>
  </g>
</svg>
